<svg enable-background="new 0 0 100 100" height="512" viewBox="0 0 100 100" width="512" xmlns="http://www.w3.org/2000/svg"><path d="m34.429211 25.043512h18.679079v1.623365h-18.679079z" fill="#ededed" transform="matrix(.983 .183 -.183 .983 5.475 -7.578)"/><path d="m52.266117 27.712965h18.679079v2.929493h-18.679079z" fill="#dbd8dd" transform="matrix(.983 .183 -.183 .983 6.385 -10.788)"/><path d="m31.291035 22.493694h3.7332v2.769895h-3.7332z" fill="#ededed" transform="matrix(.983 .183 -.183 .983 4.933 -5.668)"/><path d="m69.7823334 27.2516308c-1.360939 0-2.4640732 1.1032524-2.4640732 2.4641914v5.4195538h4.9283829v-5.4195538c0-1.360939-1.1033707-2.4641914-2.4643097-2.4641914z" fill="#344d5b"/><path d="m11.5902433 50.9621201v-26.3238392c0-2.6116886 2.1171932-4.7288818 4.7288828-4.7288818h62.2000008c3.6010056 0 6.5472794 2.9462738 6.5472794 6.5472736v24.5054474h1.8183899v-26.3238392c0-4.6202297-3.7454376-8.3656654-8.3656693-8.3656654h-60.381609c-4.6202297 0-8.3656664 3.7454357-8.3656664 8.3656654v24.5054493c0 1.0042686.8141212 1.8183899 1.8183899 1.8183899z" fill="#344d5b"/><path d="m89.575058 43.0021477h-4.5778656c-.3606262 0-.6530914.292408-.6530914.6530914v13.1866112c0 .3606796.2924652.6530914.6530914.6530914h4.5778656c.3606186 0 .6530914-.2924118.6530914-.6530914v-13.1866112c0-.3606834-.2924728-.6530914-.6530914-.6530914z" fill="#467082"/><path d="m84.5350494 38.5836067c-.274498-2.5314026-2.3328247-4.5111198-4.8753891-4.6476021-20.8876381-1.1210556-41.7750359-1.1210556-62.662674 0-2.5425663.1364822-4.6008959 2.1161995-4.8753862 4.6476021-1.4340277 13.2184563-1.4340277 26.4369164 0 39.6554298.2744904 2.5314026 2.3328199 4.5111237 4.8753862 4.6476059 20.8876362 1.1209946 41.775032 1.1209946 62.662674 0 2.5425644-.1364822 4.6008911-2.1162033 4.8753891-4.6476059 1.434021-13.21846 1.434021-26.4369735 0-39.6554298z" fill="#feda6f"/><path d="m61.3774261 41.7772636-.8988037-1.1450195c-.8604126-.8549805-1.9775391-1.3740234-3.1975098-1.3740234h-36.5578021c-1.2069092 0-2.3240967.519043-3.1973267 1.3740234l-.8988037 1.1450195c-.5906372.9770508-.9373159 2.1679688-.9373159 3.4658203v26.3518105c0 1.2976074.3466787 2.4885254.9373159 3.4656982l.8988037 1.1451416c.87323.8395996 1.9904175 1.3586426 3.1973267 1.3586426h36.5578003c1.2199707 0 2.3370972-.519043 3.1975098-1.3586426l.7776489-1.0039062c.0806274-.104248.1557617-.2116699.2202759-.3265381.5302734-.9438477.8383789-2.0714111.8383789-3.2803955v-26.3518104c.0000018-1.2978516-.3467389-2.4887696-.9374982-3.4658204zm-.9630737 1.1451416-.9244995 1.0992432-.9373779-1.0992432.9373779-1.114624zm-2.786499 5.5268555.9246216 1.114502-.9246216 1.0992432-.9373779-1.0992432zm-.9373779-3.3131103.9373779-1.114502.9246216 1.114502-.9246216 1.0993652zm-.9244995 9.9544677.9244995 1.114502-.9244995 1.0992432-.9373779-1.0992432zm-.937378-3.3131103.9373779-1.114502.9244995 1.114502-.9244994 1.0993652zm-.9244995 3.3131103-.9373169-1.0992432.9373169-1.114502.9244995 1.114502zm.9244995 3.3282471-.9244995 1.0993652-.9373169-1.0993652.9373169-1.114502zm-2.7863159-5.5419922-.9375-1.0993652.9375-1.114502.9244995 1.114502zm0 2.2137451.9244995 1.114502-.9244995 1.0992432-.9375-1.0992432zm-1.8619995 0-.9373779-1.0992432.9373779-1.114502.9244995 1.114502zm.9244995 3.3282471-.9244995 1.0993652-.9373779-1.0993652.9373779-1.114502zm-2.7865601-5.5419922-.9373169-1.0993652.9373169-1.114502.9246826 1.114502zm0 2.2137451.9246826 1.114502-.9246826 1.0992432-.9373169-1.0992432zm-1.8618164 0-.9373779-1.0992432.9373779-1.114502.9244995 1.114502zm.9244996 3.3282471-.9244995 1.0993652-.9373779-1.0993652.9373779-1.114502zm-2.786377-5.5419922-.9373779-1.0993652.9373779-1.114502.9244995 1.114502zm0 2.2137451.9244995 1.114502-.9244995 1.0992432-.9373779-1.0992432zm-1.8618774 0-.9375-1.0992432.9375-1.114502.9244995 1.114502zm.9244995 3.3282471-.9244995 1.0993652-.9375-1.0993652.9375-1.114502zm-2.7864991-5.5419922-.9373169-1.0993652.9373169-1.114502.9244995 1.114502zm0 2.2137451.9244995 1.114502-.9244995 1.0992432-.9373169-1.0992432zm-1.8619995 0-.9373779-1.0992432.9373779-1.114502.9246826 1.114502zm.9246827 3.3282471-.9246826 1.0993652-.9373779-1.0993652.9373779-1.114502zm-2.7865601-5.5419922-.9373169-1.0993652.9373169-1.114502.9244995 1.114502zm0 2.2137451.9244995 1.114502-.9244995 1.0992432-.9373169-1.0992432zm-1.8618164 0-.9373779-1.0992431.9373779-1.114502.9244995 1.114502zm.9244995 3.3282471-.9244995 1.0993652-.9373779-1.0993652.9373779-1.114502zm-2.786377-5.5419922-.9375-1.0993652.9375-1.114502.9244995 1.114502zm0 2.2137451.9244995 1.114502-.9244995 1.0992432-.9375-1.0992432zm-1.8620014 0-.9373779-1.0992432.9373779-1.114502.9245014 1.114502zm.9245014 3.3282471-.9245014 1.0993652-.9373779-1.0993652.9373779-1.114502zm-2.7865009-5.5419922-.9373779-1.0993652.9373779-1.114502.9246216 1.114502zm0 2.2137451.9246216 1.114502-.9246216 1.0992432-.9373779-1.0992432zm-1.8618774 0-.9373779-1.0992432.9373779-1.114502.9244995 1.114502zm.9244995 3.3282471-.9244995 1.0993652-.9373779-1.0993652.9373779-1.114502zm-2.786377-5.5419922-.9373169-1.0993652.9373169-1.114502.9244995 1.114502zm0 2.2137451.9244995 1.114502-.9244995 1.0992432-.9373169-1.0992432zm-1.8618164 0-.937561-1.0992432.937561-1.114502.9244995 1.114502zm.9244995 3.3282471-.9244995 1.0993652-.937561-1.0993652.937561-1.114502zm-2.78656-5.5419922-.9373169-1.0993652.9373169-1.114502.9244995 1.114502zm0 2.2137451.9244995 1.114502-.9244995 1.0992432-.9373169-1.0992432zm-1.8619995 0-.9373169-1.0992432.9373169-1.114502.9246826 1.114502zm0 2.2137452.9246826 1.114502-.9246826 1.0993652-.9373169-1.0993652zm0 4.4276123.9246826 1.114624-.9246826 1.0991211-.9373169-1.0991211zm1.8619995 2.2137451.9244995 1.1146278-.9244995 1.0992432-.9373169-1.0992432zm0-2.2137451-.9373169-1.0992432.9373169-1.114502.9244995 1.114502zm1.8620605 0 .9244995 1.114624-.9244995 1.0991211-.937561-1.0991211zm1.8618164 2.2137451.9244995 1.1146278-.9244995 1.0992432-.9373169-1.0992432zm0-2.2137451-.9373169-1.0992432.9373169-1.114502.9244995 1.114502zm1.8618775 0 .9244995 1.114624-.9244995 1.0991211-.9373779-1.0991211zm1.8618774 2.2137451.9246216 1.1146278-.9246216 1.0992432-.9373779-1.0992432zm0-2.2137451-.9373779-1.0992432.9373779-1.114502.9246216 1.114502zm1.8619995 0 .9245014 1.114624-.9245014 1.0991211-.9373779-1.0991211zm1.8620014 2.2137451.9244995 1.1146278-.9244995 1.0992432-.9375-1.0992432zm0-2.2137451-.9375-1.0992432.9375-1.114502.9244995 1.114502zm1.8618775 0 .9244995 1.114624-.9244995 1.0991211-.9373779-1.0991211zm1.8618164 2.2137451.9244995 1.1146278-.9244995 1.0992432-.9373169-1.0992432zm0-2.2137451-.9373169-1.0992432.9373169-1.114502.9244995 1.114502zm1.8618774 0 .9246826 1.114624-.9246826 1.0991211-.9373779-1.0991211zm1.8619995 2.2137451.9244995 1.1146278-.9244995 1.0992432-.9373169-1.0992432zm0-2.2137451-.9373169-1.0992432.9373169-1.114502.9244995 1.114502zm1.8619996 0 .9244995 1.114624-.9244995 1.0991211-.9375-1.0991211zm1.8618774 2.2137451.9244995 1.1146278-.9244995 1.0992432-.9373779-1.0992432zm0-2.2137451-.9373779-1.0992432.9373779-1.114502.9244995 1.114502zm1.8618774 0 .9244995 1.114624-.9244995 1.0991211-.9373779-1.0991211zm1.8618164 2.2137451.9246826 1.1146278-.9246826 1.0992432-.9373169-1.0992432zm0-2.2137451-.9373169-1.0992432.9373169-1.114502.9246826 1.114502zm1.8620606 0 .9244995 1.114624-.9244995 1.0991211-.9373779-1.0991211zm1.8619995 2.2137451.9244995 1.1146278-.9244995 1.0992432-.9375-1.0992432zm0-2.2137451-.9375-1.0992432.9375-1.114502.9244995 1.114502zm1.8618164 0 .9244995 1.114624-.9244995 1.0991211-.9373169-1.0991211zm1.8618775 2.2137451.9244995 1.1146278-.9244995 1.0992432-.9373779-1.0992432zm0-2.2137451-.9373779-1.0992432.9373779-1.114502.9244995 1.114502zm1.8618774 0 .9246216 1.114624-.9246216 1.0991211-.9373779-1.0991211zm0-2.2137452-.9373779-1.0993652.9373779-1.114502.9246216 1.114502zm0-4.4276123-.9373779-1.0992432.9373779-1.114502.9246216 1.114502zm-1.8618774-6.6413574-.9373779-1.0992432.9373779-1.114502.9244995 1.114502zm-1.8618775-2.2137451-.9373169-1.0993652.9373169-1.114502.9244995 1.114502zm0 2.2137451.9244995 1.114502-.9244995 1.0992432-.9373169-1.0992432zm-1.8618164 0-.9375-1.0992432.9375-1.114502.9244995 1.114502zm-1.8619995-2.2137451-.9373779-1.0993652.9373779-1.114502.9244995 1.114502zm0 2.2137451.9244995 1.114502-.9244995 1.0992432-.9373779-1.0992432zm-1.8620606 0-.9373169-1.0992432.9373169-1.114502.9246826 1.114502zm-1.8618164-2.2137451-.9373779-1.0993652.9373779-1.114502.9244995 1.114502zm0 2.2137451.9244995 1.114502-.9244995 1.0992432-.9373779-1.0992432zm-1.8618774 0-.9373779-1.0992432.9373779-1.114502.9244995 1.114502zm-1.8618774-2.2137451-.9375-1.0993652.9375-1.114502.9244995 1.114502zm0 2.2137451.9244995 1.114502-.9244995 1.0992432-.9375-1.0992432zm-1.8619996 0-.9373169-1.0992432.9373169-1.114502.9244995 1.114502zm-1.8619995-2.2137451-.9373779-1.0993652.9373779-1.114502.9246826 1.114502zm0 2.2137451.9246826 1.114502-.9246826 1.0992432-.9373779-1.0992432zm-1.8618774 0-.9373169-1.0992432.9373169-1.114502.9244995 1.114502zm-1.8618164-2.2137451-.9373779-1.0993652.9373779-1.114502.9244995 1.114502zm0 2.2137451.9244995 1.114502-.9244995 1.0992432-.9373779-1.0992432zm-1.8618775 0-.9375-1.0992432.9375-1.114502.9244995 1.114502zm-1.8620014-2.2137451-.9373779-1.0993652.9373779-1.114502.9245014 1.114502zm0 2.2137451.9245014 1.114502-.9245014 1.0992432-.9373779-1.0992432zm-1.8619995 0-.9373779-1.0992432.9373779-1.114502.9246216 1.114502zm-1.8618774-2.2137451-.9373779-1.0993652.9373779-1.114502.9244995 1.114502zm0 2.2137451.9244995 1.114502-.9244995 1.0992432-.9373779-1.0992432zm-1.8618775 0-.9373169-1.0992432.9373169-1.114502.9244995 1.114502zm-1.8618164-2.2137451-.937561-1.0993652.937561-1.114502.9244995 1.114502zm0 2.2137451.9244995 1.114502-.9244995 1.0992432-.937561-1.0992432zm-1.8620605 0-.9373169-1.0992432.9373169-1.114502.9244995 1.114502zm-1.8619995-2.2137451-.9373169-1.0993652.9373169-1.114502.9246826 1.114502zm0 2.2137451.9246826 1.114502-.9246826 1.0992432-.9373169-1.0992432zm-1.8618164 0-.9373779-1.0992432.9373779-1.114502.9244995 1.114502zm0 2.2137451.9244995 1.114502-.9244995 1.0993652-.9373779-1.0993652zm0 4.4276123.9244995 1.114502-.9244995 1.0992432-.9373779-1.0992432zm0 4.4276123.9244995 1.114502-.9244995 1.0992432-.9373779-1.0992432zm0 4.4274903.9244995 1.1146278-.9244995 1.0992432-.9373779-1.0992432zm0 4.4277382.9244995 1.114502-.9244995 1.0992432-.9373779-1.0992432zm1.8618164 2.2137451.9246826 1.114502-.9246826 1.0992432-.9373169-1.0992432zm0-2.2137451-.9373169-1.0993652.9373169-1.114502.9246826 1.114502zm1.8619995 0 .9244995 1.114502-.9244995 1.0992432-.9373169-1.0992432zm1.8620605 2.2137451.9244995 1.114502-.9244995 1.0992432-.937561-1.0992432zm0-2.2137451-.937561-1.0993652.937561-1.114502.9244995 1.114502zm1.8618164 0 .9244995 1.114502-.9244995 1.0992432-.9373169-1.0992432zm1.8618775 2.2137451.9244995 1.114502-.9244995 1.0992432-.9373779-1.0992432zm0-2.2137451-.9373779-1.0993652.9373779-1.114502.9244995 1.114502zm1.8618774 0 .9246216 1.114502-.9246216 1.0992432-.9373779-1.0992432zm1.8619995 2.2137451.9245014 1.114502-.9245014 1.0992432-.9373779-1.0992432zm0-2.2137451-.9373779-1.0993652.9373779-1.114502.9245014 1.114502zm1.8620014 0 .9244995 1.114502-.9244995 1.0992432-.9375-1.0992432zm1.8618775 2.2137451.9244995 1.114502-.9244995 1.0992432-.9373779-1.0992433zm0-2.2137451-.9373779-1.0993653.9373779-1.114502.9244995 1.114502zm1.8618164 0 .9244995 1.114502-.9244995 1.0992432-.9373169-1.0992432zm1.8618774 2.2137451.9246826 1.114502-.9246826 1.0992432-.9373779-1.0992432zm0-2.2137451-.9373779-1.0993652.9373779-1.114502.9246826 1.114502zm1.8619995 0 .9244995 1.114502-.9244995 1.0992432-.9373169-1.0992432zm1.8619996 2.2137451.9244995 1.114502-.9244995 1.0992432-.9375-1.0992432zm0-2.2137451-.9375-1.0993652.9375-1.114502.9244995 1.114502zm1.8618774 0 .9244995 1.114502-.9244995 1.0992432-.9373779-1.0992432zm1.8618774 2.2137451.9244995 1.114502-.9244995 1.0992432-.9373779-1.0992432zm0-2.2137451-.9373779-1.0993652.9373779-1.114502.9244995 1.114502zm1.8618164 0 .9246826 1.114502-.9246826 1.0992431-.9373169-1.0992432zm1.8620606 2.2137451.9244995 1.114502-.9244995 1.0992432-.9373779-1.0992432zm0-2.2137451-.9373779-1.0993652.9373779-1.114502.9244995 1.114502zm1.8619995 0 .9244995 1.114502-.9244995 1.0992432-.9375-1.0992432zm1.8618164 2.2137451.9244995 1.114502-.9244995 1.0992432-.9373169-1.0992432zm0-2.2137451-.9373169-1.0993652.9373169-1.114502.9244995 1.114502zm1.8618775 0 .9244995 1.114502-.9244995 1.0992431-.9373779-1.0992432zm1.8618774 2.2137451.9246216 1.114502-.9246216 1.0992432-.9373779-1.0992432zm0-2.2137451-.9373779-1.0993652.9373779-1.114502.9246216 1.114502zm1.8619995 0 .9244995 1.114502-.9244995 1.0992432-.9373779-1.0992432zm0-2.2138672-.9373779-1.0992432.9373779-1.1146278.9244995 1.1146278zm0-4.4276161-.9373779-1.0992432.9373779-1.114502.9244995 1.114502zm0-4.4276123-.9373779-1.0992432.9373779-1.114502.9244995 1.114502zm0-4.4274903-.9373779-1.0993652.9373779-1.114502.9244995 1.114502zm0-4.4276123-.9373779-1.0992432.9373779-1.114502.9244995 1.114502zm-1.8619995-8.8553467.9246216 1.1147461-.9246216 1.0991211-.9373779-1.0991211zm-.9373779 3.3284912-.9244995 1.0992432-.9373779-1.0992432.9373779-1.114624zm-2.786377-3.3284912.9244995 1.1147461-.9244995 1.0991211-.9373169-1.0991211zm-.9373169 3.3284912-.9244995 1.0992432-.9375-1.0992432.9375-1.114624zm-2.786499-3.3284912.9244995 1.1147461-.9244995 1.0991211-.9373779-1.0991211zm-.9373779 3.3284912-.9246826 1.0992432-.9373169-1.0992432.9373169-1.114624zm-2.7864991-3.3284912.9244995 1.1147461-.9244995 1.0991211-.9373779-1.0991211zm-.9373779 3.3284912-.9244995 1.0992432-.9373779-1.0992432.9373779-1.114624zm-2.7863769-3.3284912.9244995 1.1147461-.9244995 1.0991211-.9375-1.0991211zm-.9375 3.3284912-.9244995 1.0992432-.9373169-1.0992432.9373169-1.114624zm-2.7864991-3.3284912.9246826 1.1147461-.9246826 1.0991211-.9373779-1.0991211zm-.9373779 3.3284912-.9244995 1.0992432-.9373169-1.0992432.9373169-1.114624zm-2.7863159-3.3284912.9244995 1.1147461-.9244995 1.0991211-.9373779-1.0991211zm-.9373779 3.3284912-.9244995 1.0992432-.9375-1.0992432.9375-1.114624zm-2.786501-3.3284912.9245014 1.1147461-.9245014 1.0991211-.9373779-1.0991211zm-.9373779 3.3284912-.9246216 1.0992432-.9373779-1.0992432.9373779-1.114624zm-2.786499-3.3284912.9244995 1.1147461-.9244995 1.0991211-.9373779-1.0991211zm-.937378 3.3284912-.9244995 1.0992432-.9373169-1.0992432.9373169-1.114624zm-2.7863159-3.3284912.9244995 1.1147461-.9244995 1.0991211-.937561-1.0991211zm-.937561 3.3284912-.9244995 1.0992432-.9373169-1.0992432.9373169-1.114624zm-2.786499-3.3284912.9246826 1.1147461-.9246826 1.0991211-.9373169-1.0991211zm-1.8618164 2.2138672.9244995 1.114624-.9244995 1.0992432-.9373779-1.0992432zm-1.8618775 2.2138672.9244995 1.114502-.9244995 1.0993652-.937377-1.0993652zm0 4.4276123.9244995 1.114502-.9244995 1.0992432-.937377-1.0992432zm0 4.4276123.9244995 1.114502-.9244995 1.0992432-.937377-1.0992432zm0 4.4274903.9244995 1.114502-.9244995 1.0993652-.937377-1.0993652zm0 4.4276123.9244995 1.114624-.9244995 1.0991211-.937377-1.0991211zm0 4.4276161.9244995 1.114502-.9244995 1.0993652-.937377-1.0993652zm0 6.6413574-.937377-1.0992432.937377-1.114502.9244995 1.114502zm.9244995 1.1145019.9373779-1.114502.9244995 1.114502-.9244995 1.0993652zm2.7991944 3.3131104-.9373169-1.0992432.9373169-1.114502.9246826 1.114502zm.9246826-3.3131104.9373169-1.114502.9244995 1.114502-.9244995 1.0993652zm2.7993774 3.3131104-.937561-1.0992432.937561-1.114502.9244995 1.114502zm.9244995-3.3131104.9373169-1.114502.9244995 1.114502-.9244995 1.0993652zm2.7991944 3.3131104-.9373779-1.0992432.9373779-1.114502.9244995 1.114502zm.9244995-3.3131104.9373779-1.114502.9246216 1.114502-.9246216 1.0993652zm2.7993774 3.3131104-.9373779-1.0992432.9373779-1.114502.9245014 1.114502zm.9245014-3.3131104.9375-1.114502.9244995 1.114502-.9244995 1.0993652zm2.7993775 3.3131104-.9373779-1.0992432.9373779-1.114502.9244995 1.114502zm.9244995-3.3131104.9373169-1.114502.9244995 1.114502-.9244995 1.0993652zm2.7991943 3.3131104-.9373779-1.0992432.9373779-1.114502.9246826 1.114502zm.9246827-3.3131104.9373169-1.114502.9244995 1.114502-.9244995 1.0993652zm2.7993164 3.3131104-.9375-1.0992432.9375-1.114502.9244995 1.114502zm.9244995-3.3131104.9373779-1.114502.9244995 1.114502-.9244995 1.0993652zm2.7992553 3.3131104-.9373779-1.0992432.9373779-1.114502.9244995 1.114502zm.9244996-3.3131104.9373169-1.114502.9246826 1.114502-.9246826 1.0993652zm2.7993774 3.3131104-.9373779-1.0992432.9373779-1.114502.9244995 1.114502zm.9244995-3.3131104.9375-1.114502.9244995 1.114502-.9244995 1.0993652zm2.7993164 3.3131104-.9373169-1.0992432.9373169-1.114502.9244995 1.114502zm.9244995-3.3131104.9373779-1.114502.9244995 1.114502-.9244995 1.0993652zm2.7992554 3.3131104-.9373779-1.0992432.9373779-1.114502.9246216 1.114502zm1.8619995-2.2137451-.9373779-1.0993653.9373779-1.114502.9244995 1.114502zm1.8619995-2.2138672-.9375-1.0992432.9375-1.114502.9244995 1.114502zm0-4.4274902-.9375-1.0993652.9375-1.114502.9244995 1.114502zm0-4.4277382-.9375-1.0991211.9375-1.114624.9244995 1.114624zm0-4.4274903-.9375-1.0993652.9375-1.114502.9244995 1.114502zm0-4.4276123-.9375-1.0992432.9375-1.114502.9244995 1.114502zm0-4.4276123-.9375-1.0992432.9375-1.114502.9244995 1.114502zm0-4.4274902-.9375-1.0993652.9375-1.114502.9244995 1.114502z" fill="#467082"/><path d="m67.318169 40.631619h10.583452v35.420769h-10.583452z" fill="#467082"/><g fill="#ededed"><path d="m74.652382 44.71405h2.266394v.622866h-2.266394z"/><path d="m75.785584 46.443825h1.133197v.622866h-1.133197z"/><path d="m74.652382 48.518772h2.266394v.622866h-2.266394z"/><path d="m75.785584 50.248543h1.133197v.622866h-1.133197z"/><path d="m74.652382 52.32349h2.266394v.622866h-2.266394z"/><path d="m75.785584 54.053265h1.133197v.622866h-1.133197z"/><path d="m74.652382 56.128208h2.266394v.622866h-2.266394z"/><path d="m75.785584 57.857983h1.133197v.622866h-1.133197z"/><path d="m74.652382 59.932926h2.266394v.622866h-2.266394z"/><path d="m75.785584 61.662701h1.133197v.622866h-1.133197z"/><path d="m74.652382 63.737644h2.266394v.622866h-2.266394z"/><path d="m75.785584 65.467423h1.133197v.622866h-1.133197z"/><path d="m74.652382 67.542366h2.266394v.622866h-2.266394z"/><path d="m75.785584 69.272141h1.133197v.622866h-1.133197z"/><path d="m74.652382 71.347084h2.266394v.622866h-2.266394z"/><path d="m68.30101 44.71405h2.266394v.622866h-2.266394z" transform="matrix(-1 0 0 -1 138.868 90.051)"/><path d="m68.30101 46.443825h1.133197v.622866h-1.133197z" transform="matrix(-1 0 0 -1 137.735 93.511)"/><path d="m68.30101 48.518772h2.266394v.622866h-2.266394z" transform="matrix(-1 0 0 -1 138.868 97.66)"/><path d="m68.30101 50.248543h1.133197v.622866h-1.133197z" transform="matrix(-1 0 0 -1 137.735 101.12)"/><path d="m68.30101 52.32349h2.266394v.622866h-2.266394z" transform="matrix(-1 0 0 -1 138.868 105.27)"/><path d="m68.30101 54.053265h1.133197v.622866h-1.133197z" transform="matrix(-1 0 0 -1 137.735 108.729)"/><path d="m68.30101 56.128208h2.266394v.622866h-2.266394z" transform="matrix(-1 0 0 -1 138.868 112.879)"/><path d="m68.30101 57.857983h1.133197v.622866h-1.133197z" transform="matrix(-1 0 0 -1 137.735 116.339)"/><path d="m68.30101 59.932926h2.266394v.622866h-2.266394z" transform="matrix(-1 0 0 -1 138.868 120.489)"/><path d="m68.30101 61.662701h1.133197v.622866h-1.133197z" transform="matrix(-1 0 0 -1 137.735 123.948)"/><path d="m68.30101 63.737644h2.266394v.622866h-2.266394z" transform="matrix(-1 0 0 -1 138.868 128.098)"/><path d="m68.30101 65.467423h1.133197v.622866h-1.133197z" transform="matrix(-1 0 0 -1 137.735 131.558)"/><path d="m68.30101 67.542366h2.266394v.622866h-2.266394z" transform="matrix(-1 0 0 -1 138.868 135.708)"/><path d="m68.30101 69.272141h1.133197v.622866h-1.133197z" transform="matrix(-1 0 0 -1 137.735 139.167)"/><path d="m68.30101 71.347084h2.266394v.622866h-2.266394z" transform="matrix(-1 0 0 -1 138.868 143.317)"/></g><path d="m70.027863 54.178116h5.164064v.498014h-5.164064z" fill="#dd584d"/><path d="m71.969292 40.596966h1.281214v35.490067h-1.281214z" fill="#ededed"/><g fill="#fff" opacity=".5"><path d="m44.5888596 36.8557549c-8.0688133-.1062469-16.1392708-.0326004-24.2057323.2208939-.0148067-.4673767-.029377-.9347496-.0440655-1.4021263 8.0872612-.2541695 16.1786346-.3279915 24.2682457-.2214737-.0061112.4675597-.0122224.9351386-.0184479 1.4027061z"/><path d="m54.4968567 37.0766487c-2.6814575-.0842743-5.3633842-.1486664-8.0460167-.1931839.0078697-.4675522.0153923-.9350891.0232658-1.4026413 2.6892128.044632 5.3781891.1091995 8.0668144.1936989-.0146903.4673767-.0294952.9347496-.0440635 1.4021263z"/></g></svg>